<svg xmlns="http://www.w3.org/2000/svg" width="512" height="512">
<path style="fill:#19504e; stroke:none;" d="M250 115.529C239.109 118.03 231.52 127.48 224 135L180 179L65 294C45.5486 313.451 24.0738 332.088 6.20988 353C-7.36822 368.895 2.05826 395.99 24 396.959C45.4625 397.907 64.2421 370.758 78 357L202 233L242 193C245.042 189.958 252.093 179.918 257 181.207C262.067 182.537 267.399 190.399 271 194L304 227L426 349C437.534 360.534 449.072 371.98 461 383.09C470.172 391.633 479.378 400.082 493 396.211C508.6 391.779 517.061 373.839 509.811 359C504.179 347.473 490.972 337.972 482 329L316 163C300.405 147.405 275.564 109.661 250 115.529z"/>
</svg>