<?xml version="1.0" standalone="no"?>
<!DOCTYPE svg PUBLIC "-//W3C//DTD SVG 20010904//EN"
 "http://www.w3.org/TR/2001/REC-SVG-20010904/DTD/svg10.dtd">
<svg version="1.0" xmlns="http://www.w3.org/2000/svg"
 width="512.000000pt" height="512.000000pt" viewBox="0 0 512.000000 512.000000"
 preserveAspectRatio="xMidYMid meet">

<g transform="translate(0.000000,512.000000) scale(0.100000,-0.100000)"
fill="#fff" stroke="none">
<path d="M4432 5023 c-11 -10 -49 -79 -83 -153 -34 -74 -67 -140 -73 -146 -6
-6 -69 -19 -141 -29 -150 -21 -191 -34 -206 -69 -20 -43 -2 -73 113 -192 l112
-115 -24 -147 c-14 -81 -24 -160 -24 -176 1 -34 43 -76 76 -76 12 0 84 34 160
76 l138 76 138 -76 c76 -42 148 -76 160 -76 33 0 75 42 76 76 0 16 -10 95 -24
176 l-24 147 111 114 c113 115 129 141 119 183 -10 39 -46 53 -199 77 -81 12
-150 27 -155 32 -5 6 -37 71 -71 145 -66 143 -87 170 -131 170 -15 0 -37 -8
-48 -17z m90 -340 c20 -43 44 -86 56 -96 16 -15 157 -47 206 -47 5 0 -23 -33
-62 -73 -39 -41 -74 -85 -77 -98 -3 -14 1 -67 10 -118 9 -51 15 -95 13 -96 -2
-2 -37 17 -78 41 -43 25 -88 43 -106 43 -19 1 -62 -16 -110 -43 -44 -24 -80
-42 -82 -41 -2 2 4 45 13 96 9 51 13 104 10 118 -3 13 -38 57 -77 98 -39 40
-67 73 -62 73 49 0 190 32 206 47 12 10 36 53 56 96 19 42 38 77 42 77 4 0 23
-35 42 -77z"/>
<path d="M320 4880 l0 -80 -80 0 -80 0 0 -80 0 -80 80 0 80 0 0 -80 0 -80 80
0 80 0 0 80 0 80 80 0 80 0 0 80 0 80 -80 0 -80 0 0 80 0 80 -80 0 -80 0 0
-80z m160 -160 l0 -80 -80 0 -80 0 0 80 0 80 80 0 80 0 0 -80z"/>
<path d="M960 4640 l0 -80 -80 0 -80 0 0 -80 0 -80 80 0 80 0 0 -80 0 -80 80
0 80 0 0 80 0 80 80 0 80 0 0 80 0 80 -80 0 -80 0 0 80 0 80 -80 0 -80 0 0
-80z m160 -160 l0 -80 -80 0 -80 0 0 80 0 80 80 0 80 0 0 -80z"/>
<path d="M2563 4116 c-92 -30 -175 -99 -227 -188 -70 -122 -63 -294 17 -412
l33 -50 -65 -32 c-36 -17 -82 -47 -103 -65 -45 -42 -664 -887 -696 -951 -31
-62 -24 -115 24 -168 46 -51 85 -59 225 -48 171 14 165 9 380 293 100 132 189
248 198 258 17 17 18 9 30 -153 l13 -171 -93 -642 c-51 -353 -94 -644 -96
-646 -2 -3 -49 -13 -105 -23 -56 -10 -103 -19 -105 -21 -3 -4 15 -149 20 -153
6 -6 246 40 377 72 494 123 953 351 1371 679 273 215 719 702 719 787 0 43
-35 72 -108 88 -34 7 -62 16 -62 19 0 8 416 241 429 241 4 0 29 -98 56 -217
26 -119 50 -225 52 -234 5 -17 0 -16 -59 3 -97 31 -103 28 -204 -120 -527
-773 -1119 -1305 -1788 -1606 -300 -134 -629 -220 -963 -251 l-73 -7 0 -80 0
-80 78 6 c1079 95 2035 723 2831 1859 45 64 85 117 89 117 3 0 50 -14 104 -32
109 -36 141 -33 167 14 14 25 10 52 -69 410 -91 410 -97 428 -155 428 -30 0
-760 -401 -787 -432 -10 -11 -18 -33 -18 -48 0 -51 27 -69 143 -98 60 -15 108
-32 108 -37 -3 -33 -390 -455 -418 -455 -6 0 -43 111 -84 247 -49 162 -82 257
-97 275 -13 15 -102 68 -201 119 l-177 92 -26 196 c-14 108 -25 196 -25 197 1
1 173 131 381 290 339 258 381 293 399 333 13 29 17 55 13 79 -10 64 -118 223
-175 256 -41 23 -105 25 -146 3 -16 -8 -167 -123 -335 -255 -168 -132 -306
-238 -308 -237 -2 2 4 26 14 54 26 80 16 210 -21 287 -37 76 -114 153 -190
189 -51 24 -75 29 -155 32 -61 2 -110 -2 -137 -11z m215 -162 c86 -36 141
-120 142 -217 0 -137 -100 -239 -235 -239 -133 0 -236 100 -236 231 -1 99 51
182 136 222 50 23 142 25 193 3z m1032 -104 c23 -34 40 -65 38 -71 -2 -5 -176
-141 -388 -302 -265 -202 -388 -302 -394 -320 -11 -31 49 -520 68 -549 6 -10
96 -62 199 -115 104 -53 192 -104 197 -112 4 -9 43 -133 85 -275 l78 -259 -34
-28 c-19 -16 -52 -42 -75 -58 l-40 -30 -79 222 c-43 122 -88 238 -101 259 -20
31 -52 50 -241 143 -120 58 -231 107 -246 107 -18 1 -37 -8 -52 -23 -20 -21
-33 -83 -119 -584 -53 -308 -99 -572 -102 -586 -4 -23 -15 -29 -92 -52 -139
-42 -145 -43 -139 -21 3 11 45 292 93 627 l88 607 -25 297 -26 296 -27 24
c-34 29 -68 29 -100 1 -14 -13 -136 -169 -271 -348 -232 -306 -248 -325 -283
-331 -67 -12 -153 -16 -150 -8 10 28 647 885 672 904 17 13 45 29 61 35 16 6
163 22 325 36 162 13 305 26 317 29 11 3 176 126 365 274 188 149 346 270 350
270 4 1 26 -26 48 -59z m-712 -1659 l137 -69 83 -233 c45 -129 82 -239 82
-246 0 -15 -152 -109 -305 -189 -118 -61 -314 -149 -319 -142 -2 2 155 907
163 946 2 9 37 -6 159 -67z"/>
<path d="M745 1815 c-22 -21 -25 -33 -25 -100 l0 -76 -36 -15 -36 -15 -58 55
c-87 83 -87 83 -252 -82 -165 -164 -165 -165 -83 -251 l55 -58 -15 -37 -15
-36 -76 0 c-66 0 -78 -3 -99 -25 -25 -24 -25 -26 -25 -215 0 -189 0 -191 25
-215 21 -22 33 -25 99 -25 l76 0 15 -36 15 -37 -55 -58 c-81 -85 -81 -87 78
-246 166 -167 171 -169 256 -89 l59 57 36 -15 36 -15 0 -76 c0 -67 3 -79 25
-100 24 -25 26 -25 215 -25 189 0 191 0 215 25 22 21 25 33 25 100 l0 76 35
15 35 14 52 -50 c58 -54 78 -65 111 -56 12 3 82 65 155 139 158 160 158 161
76 247 l-55 58 15 36 15 36 76 0 c67 0 79 3 100 25 25 24 25 26 25 215 0 189
0 191 -25 215 -21 22 -33 25 -100 25 l-76 0 -15 36 -15 36 55 58 c82 86 82 87
-76 247 -167 167 -172 169 -257 89 l-59 -57 -36 15 -36 15 0 76 c0 67 -3 79
-25 100 -24 25 -26 25 -215 25 -189 0 -191 0 -215 -25z m295 -198 c0 -79 15
-100 83 -123 28 -9 73 -27 99 -40 26 -13 57 -24 68 -24 12 0 43 21 71 47 l50
47 56 -57 57 -56 -47 -50 c-26 -28 -47 -59 -47 -71 0 -11 11 -42 24 -68 13
-26 31 -71 40 -99 23 -68 44 -83 123 -83 l63 0 0 -80 0 -80 -63 0 c-79 0 -100
-15 -123 -83 -9 -28 -27 -73 -40 -99 -13 -26 -24 -57 -24 -68 0 -12 21 -43 47
-71 l47 -50 -57 -56 -56 -57 -50 47 c-28 26 -59 47 -71 47 -11 0 -42 -11 -68
-24 -26 -13 -71 -31 -99 -40 -68 -23 -83 -44 -83 -123 l0 -63 -80 0 -80 0 0
63 c0 79 -15 100 -83 123 -28 9 -73 27 -99 40 -26 13 -57 24 -68 24 -12 0 -43
-21 -71 -47 l-50 -47 -56 57 -57 56 47 50 c26 28 47 59 47 71 0 11 -11 42 -24
68 -13 26 -31 71 -40 99 -23 68 -44 83 -123 83 l-63 0 0 80 0 80 63 0 c79 0
100 15 123 83 9 28 27 73 40 99 13 26 24 57 24 68 0 12 -21 43 -47 71 l-47 50
57 56 56 57 50 -47 c28 -26 59 -47 71 -47 11 0 42 11 68 24 26 13 71 31 99 40
68 23 83 44 83 123 l0 63 80 0 80 0 0 -63z"/>
<path d="M866 1350 c-63 -16 -153 -70 -197 -117 -22 -24 -55 -74 -72 -111 -29
-61 -32 -76 -32 -163 0 -90 2 -99 37 -171 45 -91 103 -147 196 -191 61 -29 76
-32 162 -32 86 0 101 3 162 32 93 44 151 100 196 191 35 72 37 81 37 172 0 91
-2 100 -37 172 -68 136 -188 217 -336 224 -42 2 -94 -1 -116 -6z m168 -162
c55 -16 138 -99 154 -154 28 -94 8 -169 -63 -239 -101 -102 -229 -102 -330 0
-102 101 -102 229 0 330 70 71 145 90 239 63z"/>
<path d="M4640 560 l0 -80 -80 0 -80 0 0 -80 0 -80 80 0 80 0 0 -80 0 -80 80
0 80 0 0 80 0 80 80 0 80 0 0 80 0 80 -80 0 -80 0 0 80 0 80 -80 0 -80 0 0
-80z m160 -160 l0 -80 -80 0 -80 0 0 80 0 80 80 0 80 0 0 -80z"/>
</g>
</svg>
